<?xml version="1.0" encoding="utf-8"?>
<!-- Generator: Adobe Illustrator 27.5.0, SVG Export Plug-In . SVG Version: 6.00 Build 0)  -->
<svg version="1.1" xmlns="http://www.w3.org/2000/svg" xmlns:xlink="http://www.w3.org/1999/xlink" x="0px" y="0px"
	 viewBox="0 0 500 500" style="enable-background:new 0 0 500 500;" xml:space="preserve">
<g id="BACKGROUND">
	<rect style="fill:#FAF1ED;" width="500" height="500"/>
</g>
<g id="OBJECTS">
	<g>
		<defs>
			<rect id="SVGID_1_" width="500" height="500"/>
		</defs>
		<clipPath id="SVGID_00000022533865464666127770000015588607205332355509_">
			<use xlink:href="#SVGID_1_"  style="overflow:visible;"/>
		</clipPath>
		<path style="clip-path:url(#SVGID_00000022533865464666127770000015588607205332355509_);fill:#F4E4CA;" d="M13.996,174.939
			c39.982-22.038,30.956-75.612,39.051-100.571c9.018-27.804,38.461-47.486,67.601-45.189c28.411,2.239,61.079,20.504,77.438-13.644
			c3.426-7.153,2.59-13.199-4.041-18.277c-9.413-7.209-88.828-28.963-115.02-33.774C15.613-48.165-8.654-32.623-28.452,3.036
			c-40.118,72.256-17.4,155.192-7.76,166.172C-24.631,182.399-0.335,182.839,13.996,174.939z"/>
		<path style="clip-path:url(#SVGID_00000022533865464666127770000015588607205332355509_);fill:#F4E4CA;" d="M302.97,17.733
			c4.507,10.919,14.446,20.028,26.189,21.314c18.513,2.028,34.254-14.612,52.805-16.257c40.877-3.623,65.041,64.07,130.056,62.109
			c67.463-2.035,50.357-97.413-64.49-122.266C411.002-45.272,273.929-52.625,302.97,17.733z"/>
		<path style="clip-path:url(#SVGID_00000022533865464666127770000015588607205332355509_);fill:#F4E4CA;" d="M456.113,187.931
			c-15.803,19.861,9.202,29.462,18.428,35.639c21.241,14.222,28.892,45.427,16.638,67.862
			c-21.127,38.68-72.471,33.387-62.191,130.486c10.493,99.108,82.082,136.31,108.276,48.991
			c24.752-82.512,23.289-171.461,4.884-255.635c-3.474-15.889-6.816-48.211-23.845-56.514
			C497.969,148.844,467.719,173.345,456.113,187.931z"/>
		<path style="clip-path:url(#SVGID_00000022533865464666127770000015588607205332355509_);fill:#F4E4CA;" d="M251.16,479.719
			c-45.769-31.782-64.204-17.297-94.056-5.81c-55.664,21.417-112.572,3.708-123.203-32.103
			c-6.953-23.423,8.055-58.035,11.239-92.358c6.26-67.482-41.399-88.52-67.7-75.614c-20.309,9.965-26.538,35.508-29.59,57.923
			c-6.93,50.889-8.742,105.332,15.187,150.775c20.906,39.701,44.892,42.741,85.61,42.371
			c145.893-1.328,178.276,20.25,211.277,10.899c9.453-2.679,16.819-7.638,18.769-17.777
			C282.268,499.438,264.41,488.919,251.16,479.719z"/>
		<path style="clip-path:url(#SVGID_00000022533865464666127770000015588607205332355509_);fill:#FAF1ED;" d="M532.982,259.671
			c-8.983,49.019-68.342,60.336-77.501,136.932c-5.405,45.2,17.516,86.954,43.386,101.706c3.388,1.931,6.924-2.591,4.166-5.399
			c-45.146-45.963-48.813-97.789-24.117-143.179C495.944,318.433,526.5,297.032,533,265.59
			C534.567,258.01,533.058,259.256,532.982,259.671z"/>
		<path style="clip-path:url(#SVGID_00000022533865464666127770000015588607205332355509_);fill:#FAF1ED;" d="M528.647,45.979
			c-1.303-4.738-9.012,2.023-33.034-0.554c-36.609-4.236-40.981-33.462-71.897-39.371c-25.629-4.899-58.073,8.376-73.485,7.962
			c-16.308-0.437-22.436-16.929-22.559-33.244c-0.005-0.655-0.995-0.653-1.016,0c-2.27,70.502,68.012,8.155,111.238,36.529
			c16.247,10.665,33.159,40.531,72.228,36.867C514.726,53.735,529.881,50.471,528.647,45.979z"/>
		<path style="clip-path:url(#SVGID_00000022533865464666127770000015588607205332355509_);fill:#FAF1ED;" d="M141.817-15.752
			c-0.172-0.835-1.303-0.544-1.381,0.187c-1.71,16.106-15.733,26.801-30.227,31.398c-30.067,9.536-72.229-2.632-94.765,28.775
			C-0.254,66.483,3.551,96.014-18.319,115.066c-1.412,1.23,0.088,4.011,1.9,3.264c21.502-8.854,22.46-37.276,31.474-59.227
			c16.553-40.29,61.968-28.166,94.095-38.665C134.138,12.272,143.809-6.087,141.817-15.752z"/>
		<path style="clip-path:url(#SVGID_00000022533865464666127770000015588607205332355509_);fill:#FAF1ED;" d="M88.215,515.806
			c-15.338-1.217-35.517-0.12-50.016-13.952c-43.346-41.35,12.312-111.091-12.108-163.214c-6.085-12.99-20.155-25.837-34.869-26.987
			c-11.323-0.885-9.14,5.666-5.7,6.016c14.552,1.484,31.059,14.618,37.13,30.979c13.462,36.268-6.965,72.676-5.69,109.819
			C19.453,530.992,94.245,516.282,88.215,515.806z"/>
	</g>
	<g>
		<g>
			<path style="fill:#8BC084;" d="M361.334,201.937c-1.527-13.441,4.629-27.491,15.546-35.48
				c-5.34,16.422-1.327,38.008-13.254,51.664c26.99-12.531,42.626,6.954,57.964,2.138c-4.109,5.868-11.969,8.045-19.114,7.516
				c-15.051-1.114-19.786-8.824-41.316-7.467C363.533,214.064,362.066,208.378,361.334,201.937z"/>
			<path style="fill:#8BC084;" d="M332.504,223.233c-7.983-11.267-2.488-29.168-13.582-38.299
				c23.104-2.736,24.211,33.951,29.476,45.871c1.661-2.454,4.756-3.489,7.687-3.924c25.085-3.73,32.453,24.069,49.056,16.871
				c-10.393,5.919-24.231,5.13-33.884-1.932c-4.197-3.071-7.775-7.271-12.728-8.856C354.128,231.556,339.722,233.42,332.504,223.233
				z"/>
			<path style="fill:#8BC084;" d="M314.993,240.242c-4.65-9.741-5.41-25.917-22.966-31.822c15.303-8.75,31.802,30.131,41.223,41.909
				c15.97-13.092,32.382,18.589,50.122,12.367c-15.647,14.227-37.602-8.193-42.336-10.346
				C334.075,249.186,323.05,257.12,314.993,240.242z"/>
			<path style="fill:#8BC084;" d="M302.037,266.101c-9.235-4.542-30.478-10.428-27.624-37.875
				c7.171,15.612,11.96,14.653,21.769,18.724c12.162,5.048,22.45,17.203,23.247,30.347c2.685-4.267,6.725-5.931,11.73-5.325
				c15.491,1.876,25.619,23.626,37.629,19.298c-13.653,12.012-29.655-10.525-43.711-12.497c-2.411-0.338-4.926,2.259-6.89,1.277
				C314.439,278.176,315.384,272.665,302.037,266.101z"/>
			<path style="fill:#8BC084;" d="M297.907,300.704c-7.519-8.261-13.018-10.261-16.365-17.098
				c-4.126-8.429-6.248-18.778-14.171-24.688c7.085-1.917,14.752,1.628,19.712,7.038c9.972,10.878,12.149,27.25,21.56,38.533
				c17.532-19.429,35.224,19.286,49.543,5.063c-7.032,12.995-26.823,1.12-31.378-0.806c-11.89-5.026-16.627,1.619-19.598,0.237
				C305.685,308.273,302.683,305.951,297.907,300.704z"/>
			<path style="fill:#8BC084;" d="M261.527,295.338c27.257-0.966,28.49,29.418,39.178,42.998c0.779-3.251,4.117-4.333,7.093-5.855
				c16.888-8.633,18.961-4.17,31.765-1.149c5.587,1.318,12.45,0.816,15.706-3.913c-7.828,17.794-24.24,8.312-35.824,8.417
				c-4.283,0.039-8.149,1.502-11.923,3.402c-4.249,2.139-5.055,4.548-7.758,8.359c-3.619-4.827-10.035-6.35-14.255-10.663
				C274.868,326.06,280.511,309.003,261.527,295.338z"/>
			<path style="fill:#8BC084;" d="M283.575,368.914c-12.666-9.866-11.703-31.35-25.042-40.285
				c23.413-1.39,24.525,33.902,41.774,44.618c4.244-13.648,18.85-18.265,33.086-18.22c6.014,0.019,13.955,0.169,15.759-6.493
				c1.048,6.306-4.278,12.162-10.27,14.388c-5.992,2.225-12.578,1.875-18.952,2.355c-14.067,1.061-13.609,5.6-18.684,8.775
				C296.727,376.88,287.315,371.827,283.575,368.914z"/>
			<path style="fill:none;stroke:#6A9065;stroke-linecap:round;stroke-linejoin:round;stroke-miterlimit:10;" d="M363.626,218.121
				c-8.739,6.482-16.07,13.424-23.033,21.786c-5.715,6.863-10.029,14.767-14.075,22.729c-9.592,18.873-17.937,38.513-22.77,59.125
				s-6.067,42.291-1.498,62.963"/>
		</g>
		<g>
			<path style="fill:#6A9065;" d="M129.077,334.071c0.593,1.311,9.913,1.543,11.408,1.626c3.164,0.177,11.231-1.945,5.582-5.281
				c-4.043-2.388-19.763,0.602-30.088-16.335c-4.064-6.667-6.233-14.286-8.357-21.799c3.54,0.705,6.385,3.266,9.652,4.799
				c11.296,5.298,14.861-8.781,2.726-11.218c-11.459-2.301-19.431,5.975-27.806-43.835c2.955,0.357,5.714,4.326,8.056,2.489
				c1.423-1.116,0.834-3.537-0.55-4.701c-7.068-5.946-12.933,5.956-19.877-54.812c56.156,39.401,50.685,40.546,52.9,53.057
				c2.585,14.595,7.085,7.043,5.324-7.573c0.234,1.943,14.315,7.305,16.656,8.563c14.751,7.926,13.793,13.152,14.975,31.309
				c1.323,20.324,0.142,16.396,0.772,17.975c1.998,5.004,8.549-2.533,5.89-22.73c27.711,15.071,43.2,47.211,31.345,83.877
				C199.191,375.754,136.661,350.827,129.077,334.071z"/>
			<path style="fill:none;stroke:#8BC084;stroke-linecap:round;stroke-linejoin:round;stroke-miterlimit:10;" d="M79.823,185.005
				c47.097,53.596,92.197,154.563,121.359,172.589"/>
			<path style="fill:none;stroke:#8BC084;stroke-linecap:round;stroke-linejoin:round;stroke-miterlimit:10;" d="M84.774,217.949
				c9.117,7.798,19.854,12.1,30.757,15.595"/>
			<path style="fill:none;stroke:#8BC084;stroke-linecap:round;stroke-linejoin:round;stroke-miterlimit:10;" d="M151.676,237.684
				c6.516,17.976,4.324,38.347,1.877,57.31"/>
			<path style="fill:none;stroke:#8BC084;stroke-linecap:round;stroke-linejoin:round;stroke-miterlimit:10;" d="M112.679,307.611
				c18.735,7.943,38.997,15.885,59.002,15.885"/>
			<path style="fill:none;stroke:#8BC084;stroke-linecap:round;stroke-linejoin:round;stroke-miterlimit:10;" d="M194.265,279.552
				c5.723,23.054,5.096,47.395-2.731,69.821"/>
			<path style="fill:none;stroke:#8BC084;stroke-linecap:round;stroke-linejoin:round;stroke-miterlimit:10;" d="M95.977,260.464
				c13.049,6.106,27,10.835,41.897,8.794"/>
		</g>
		<g>
			<path style="fill:#8BC084;" d="M60.802,296.403c-7.805-4.881-8.958,10.18,9.085,16.808c4.668,1.537,8.927,2.518,13.539,4.786
				c-1.041-11.433,4.492-21.44,4.43-32.013c1.693-11.308-14.523-7.173-7.675,26.435C74.362,305.191,67.799,300.009,60.802,296.403z"
				/>
			<path style="fill:#8BC084;" d="M70.837,320.359c-2.982-0.758-5.269-0.02-4.654,4.091c1.909,10.686,12.586,11.067,32.971,13.075
				c-4.391-10.036,0.869-19.945-1.035-29.395c-0.956-13.758-17.256-1.075-4.393,23.704
				C92.863,331.819,80.362,323.237,70.837,320.359z"/>
			<path style="fill:#8BC084;" d="M77.81,347.419c-0.452,2.694,3.531,9.182,12.398,11.059c12.681,2.399,22.3-3.794,34.213-3.028
				c-8.28-8.536-7.334-19.587-9.571-29.394c-1.459-7.257-6.08-7.857-8.667-4.478c-2.722,3.386-3.794,18.398,10.651,29.669
				C109.112,348.753,79.143,341.277,77.81,347.419z"/>
			<path style="fill:#8BC084;" d="M112.945,374.26c12.451,1.887,14.233-7.353,37.124-10.049
				c-11.587-7.684-10.905-33.634-21.218-28.535c-10.199,3.82,11.556,27.597,13.384,26.653
				C108.646,360.65,99.3,369.309,112.945,374.26z"/>
			<path style="fill:#8BC084;" d="M137.605,385.794c12.919,3.579,20.831-7.005,50.519-20.755
				c-9.473,0.318-23.501-24.959-34.526-24.279c-12.956,0.27,1.076,21.104,17.215,23.892c2.894,0.634,5.783,1.139,9.637,1.251
				c-9.3,1.489-23.454,5.579-34.323,9.038C135.484,378.606,128.126,381.638,137.605,385.794z"/>
			<path style="fill:none;stroke:#6A9065;stroke-linecap:round;stroke-linejoin:round;stroke-miterlimit:10;" d="M69.728,284.899
				c9.239,40.232,39.047,67.557,69.819,76.555c30.803,10.105,62.57,1.883,76.438-3.444"/>
			<path style="fill:#8BC084;" d="M62.739,272.102c-4.194-14.835,0.498-25.319,4.081-27.244c3.924-2.199,6.74,4.164,6.654,16.714
				c-0.268,18.98,1.978,38.495-1.114,34.053C68.078,288.914,65.237,280.625,62.739,272.102z"/>
		</g>
		<g>
			<path style="fill:#6A9065;" d="M328.058,393.872c-5.056,0.326-7.742-1.219-9.319-6.888c-2.869-10.317-1.567-50.817,7.156-73.136
				c17.509-44.8,64.736-81.546,133.713-86.338c-3.688,39.051-13.146,78.78-37.205,109.76
				C394.93,372.647,356.552,392.033,328.058,393.872z"/>
			<path style="fill:none;stroke:#8BC084;stroke-linecap:round;stroke-linejoin:round;stroke-miterlimit:10;" d="M459.609,227.51
				c-63.485,35.392-113.189,96.787-137.099,165.425"/>
			<path style="fill:none;stroke:#8BC084;stroke-linecap:round;stroke-linejoin:round;stroke-miterlimit:10;" d="M429.046,231.972
				c-4.842,7.14-7.255,15.477-8.769,22.119c12.335,0.598,25.316-1.809,36.844-6.237"/>
			<path style="fill:none;stroke:#8BC084;stroke-linecap:round;stroke-linejoin:round;stroke-miterlimit:10;" d="M397.09,242.548
				c-7.518,13.982-11.644,29.679-12.561,45.527c22.995,1.714,44.111-0.846,65.855-8.519"/>
			<path style="fill:none;stroke:#8BC084;stroke-linecap:round;stroke-linejoin:round;stroke-miterlimit:10;" d="M358.22,267.642
				c-6.436,19.152-7.879,40.853-4.268,60.732c27.147,4.917,55.549,0.922,80.865-10.044"/>
			<path style="fill:none;stroke:#8BC084;stroke-linecap:round;stroke-linejoin:round;stroke-miterlimit:10;" d="M326.992,311.089
				c-5.977,20.472-2.377,41.821,3.314,61.813c25.131,0.778,49.628-3.343,73.082-15.057"/>
		</g>
	</g>
	<g>
		<path style="fill:#FFBE61;" d="M55.16,153.111c2.218-0.921,4.375-1.988,6.454-3.19c-1.588-1.681-3.288-3.412-5.267-4.609
			c-1.897-8.665-0.244-8.176-7.617-2.918c-2.234-0.184-4.535-0.843-6.716-1.364c1.693,9.05,4.142,3.442-1.205,12.662
			c2.193,0.065,4.385,0.13,6.578,0.195c1.657,1.818,3.639,3.743,5.077,5.739C52.705,159.373,55.142,153.156,55.16,153.111z"/>
		<path style="fill:#C85960;" d="M312.264,472.781c2.297-0.758,4.543-1.666,6.722-2.716c-1.467-1.808-3.044-3.675-4.941-5.026
			c-1.251-8.845,0.372-8.229-7.429-3.505c-2.23-0.353-4.491-1.189-6.641-1.876c1.017,9.216,3.9,3.769-2.166,12.625
			c2.197,0.231,4.394,0.461,6.591,0.692c1.527,1.951,3.372,4.034,4.665,6.147C309.327,478.884,312.243,472.825,312.264,472.781z"/>
	</g>
	<g>
		<g>
			<path style="fill:#8574EE;" d="M401.727,442.543c-5.4,0.746,20.015-0.225-73.763-1.936
				c-183.647-3.351-237.734,5.719-255.951-0.015c-24.371-7.672-26.83-43.399-9.98-55.59c9.882-7.15-5.588-0.522,313.243-3.921
				c19.18-0.204,41.833,0.134,23.446,11.396c-7.725,4.732-12.782,19.252-8.966,28.51c5.6,13.587,11.473,13.802,13.471,15.783
				C404.623,438.154,405.686,441.996,401.727,442.543z"/>
			<path style="fill:#FFFFFF;" d="M401.815,388.849c-166.67,7.286-232.769-8.872-249.607,5.06
				c-8.018,6.634-9.19,19.313-4.815,29.018c6.472,14.358,20.879,13.211,33.006,12.404c28.513-1.896,219.804,0.481,221.415,2.355
				C392.118,423.119,391.523,397.681,401.815,388.849z"/>
			<g>
				<path style="fill:none;stroke:#FF8854;stroke-linecap:round;stroke-linejoin:round;stroke-miterlimit:10;" d="M160.852,427.79
					c79.239-0.762,143.183-1.376,216.243-2.079"/>
				<path style="fill:none;stroke:#FF8854;stroke-linecap:round;stroke-linejoin:round;stroke-miterlimit:10;" d="M153.293,412.543
					c35.371,3.199,70.958,3.144,106.322-0.163"/>
				<path style="fill:none;stroke:#FF8854;stroke-linecap:round;stroke-linejoin:round;stroke-miterlimit:10;" d="M274.239,414.362
					c14.272,0.846,28.57,1.113,42.858,0.799"/>
				<path style="fill:none;stroke:#FF8854;stroke-linecap:round;stroke-linejoin:round;stroke-miterlimit:10;" d="M182.021,400.704
					c66.335,2.77,132.764,2.465,199.078-0.915"/>
			</g>
		</g>
		<g>
			<path style="fill:#8BC084;" d="M363.57,336.21c-147.785-4.891-231.154-9.476-249.176,4.162
				c-14.556,11.015-14.432,38.783,12.477,41.085c37.564,3.213,213.271,0.865,241.048,0.298c0.338-6.03-9.434-3.868-7.261-29.532
				C361.462,342.746,370.637,336.444,363.57,336.21z"/>
			<path style="fill:#FFFFFF;" d="M362.6,342.023c-0.108,0.01-143.578-0.338-188.126-2.125c-12.442-0.499-45.002-1.867-55.682,4.404
				c-11.651,6.841-12.71,27.953,2.544,31.153c9.978,2.093,18.969,3.07,29.164,3.118c162.716,0.767,199.397,1.217,216.899-0.521
				c-1.387,0.138-9.249-24.885-2.699-36.231C363.988,342.436,364.15,341.886,362.6,342.023z"/>
			<g>
				<path style="fill:none;stroke:#FF8854;stroke-linecap:round;stroke-linejoin:round;stroke-miterlimit:10;" d="M330.759,349.624
					c-51.482-2.629-103.057-3.837-154.621-3.624"/>
				<path style="fill:none;stroke:#FF8854;stroke-linecap:round;stroke-linejoin:round;stroke-miterlimit:10;" d="M263.807,358.017
					c-48.484,2.538-97.232,1.321-145.486-3.633"/>
				<path style="fill:none;stroke:#FF8854;stroke-linecap:round;stroke-linejoin:round;stroke-miterlimit:10;" d="M347.434,360.628
					c-19.414-0.848-38.862-1.085-58.294-0.71"/>
				<path style="fill:none;stroke:#FF8854;stroke-linecap:round;stroke-linejoin:round;stroke-miterlimit:10;" d="M314.489,370.56
					c-62.323,0.937-124.676,0.537-186.982-1.2"/>
			</g>
		</g>
		<g>
			<path style="fill:#FF8854;" d="M170.887,287.922c147.844-2.566,198.828-6.349,216.633,7.57
				c14.381,11.243,13.821,39.006-13.122,40.884c-37.61,2.622-180.812-1.979-208.577-2.983c-0.243-6.034,9.494-3.719,7.724-29.414
				C172.892,294.49,163.818,288.045,170.887,287.922z"/>
			<path style="fill:#FFFFFF;" d="M171.766,293.75c0.108,0.011,111.119,1.41,155.69,0.324c12.448-0.303,45.026-1.159,55.606,5.28
				c11.542,7.023,12.269,28.15-3.034,31.109c-10.01,1.936-19.015,2.771-29.21,2.659c-162.708-1.793-166.945-1.409-184.418-3.422
				c1.385,0.16,9.639-24.737,3.268-36.184C170.371,294.141,170.218,293.588,171.766,293.75z"/>
			<g>
				<path style="fill:none;stroke:#FF8854;stroke-linecap:round;stroke-linejoin:round;stroke-miterlimit:10;" d="M368.627,322.445
					c-45.002,1.878-90.063,2.334-135.094,1.368"/>
				<path style="fill:none;stroke:#FF8854;stroke-linecap:round;stroke-linejoin:round;stroke-miterlimit:10;" d="M310.278,313.077
					c-42.306-3.245-84.899-2.738-127.116,1.511"/>
				<path style="fill:none;stroke:#FF8854;stroke-linecap:round;stroke-linejoin:round;stroke-miterlimit:10;" d="M383.353,311.686
					c-16.968,0.565-33.957,0.518-50.922-0.14"/>
				<path style="fill:none;stroke:#FF8854;stroke-linecap:round;stroke-linejoin:round;stroke-miterlimit:10;" d="M354.729,301.275
					c-54.417-1.846-108.879-2.355-163.321-1.527"/>
			</g>
		</g>
		<path style="fill:#C85960;" d="M252.755,357.228c-0.013-0.012-14.006-12.437-14.006-12.437l-14.006,12.437
			c0-8.346,0-31.801,0-40.157c0-7.717-3.806-6.934,20.961-6.011c1.946,0.072,4.686-0.544,6.446,0.551
			C253.549,312.48,252.286,356.811,252.755,357.228z"/>
		<path style="fill:#FFBE61;" d="M328.561,415.679c-0.013-0.012-14.006-12.437-14.006-12.437l-14.006,12.437
			c0-8.346,0-31.801,0-40.157c0-7.717-3.806-6.934,20.961-6.011c1.946,0.072,4.686-0.544,6.446,0.551
			C329.355,370.931,328.092,415.263,328.561,415.679z"/>
	</g>
	<g>
		<path style="fill:#FF8854;" d="M163.961,446.591c-0.657,0.268-1.321,0.515-1.988,0.743c-10.456,3.625-22.435,3.17-33.345-1.981
			c-0.664-0.308-1.32-0.636-1.971-0.984c-3.523-1.871-6.908-4.25-10.078-7.153c-6.106-5.595-10.433-12.689-12.921-20.315
			c-0.252-0.764-0.481-1.529-0.689-2.301c-3.165-11.508-2.228-23.996,3.011-34.292c0.359-0.698,0.731-1.39,1.132-2.068
			c1.113-1.917,2.39-3.74,3.827-5.455c5.197-6.21,11.742-10.094,18.829-12.002c1.266-0.346,2.54-0.624,3.831-0.838
			c9.841-1.66,20.411,0.202,29.706,4.701c1.451,0.697,2.87,1.464,4.244,2.291c7.727,4.63,14.242,11.171,18.196,19.043
			c0.564,1.115,1.074,2.262,1.526,3.434c1.227,3.141,2.051,6.472,2.398,9.954c0.784,7.831,0.054,14.867-1.845,21.017
			c-0.486,1.589-1.053,3.119-1.694,4.585C181.618,435.349,173.527,442.724,163.961,446.591z"/>
		<path style="fill:#964348;" d="M163.494,418.665c-2.599,9.764-2.249,19.272,0.467,27.925c-0.657,0.268-1.321,0.515-1.988,0.743
			c-2.55-6.779-4.637-16.749-2.567-27.521c0.824-4.29,2.897-0.246-15.832-9.619c-6.098,12.801-11.693,27.501-14.946,35.158
			c-0.664-0.308-1.32-0.636-1.971-0.984c2.723-10.772,10.461-29.768,13.218-36.075c-5.255-2.778-10.37-5.846-15.223-9.279
			c-4.586,5.893-12.666,13.479-20.994,17.886c-0.252-0.764-0.481-1.529-0.689-2.301c6.56-4.151,14.044-10.749,19.006-17.549
			c-7.455-5.661-12.559-11.575-15.994-16.743c0.359-0.698,0.731-1.39,1.132-2.068c4.803,6.095,10.949,11.468,16.924,15.766
			c7.006-11.217,7.494-21.406,5.733-33.223c1.266-0.346,2.54-0.624,3.831-0.838c2.675,9.419,0.948,20.464-2.939,29.179
			c-3.583,8.025-4.857,6.168-2.573,7.675c4.268,2.807,8.984,5.414,13.481,7.691c2.789-6.166,14.541-29.872,21.737-39.844
			c1.451,0.697,2.87,1.464,4.244,2.291c-0.091,0.158-0.195,0.322-0.302,0.49c-8.116,12.768-14.6,24.13-21.83,38.948
			c5.146,2.458,10.22,4.602,15.895,6.66c4.927-13.31,15.253-22.515,24.433-27.054c0.564,1.115,1.074,2.262,1.526,3.434
			c-3.246,1.774-6.836,4.104-10.152,7.127c-5.157,4.717-9.512,10.706-12.213,17.743c11.81,3.989,18.537,5.201,22.917,6.101
			c-0.486,1.589-1.053,3.119-1.694,4.585C178.124,423.489,166.997,419.891,163.494,418.665z"/>
	</g>
	<g>
		<g>
			<path style="fill:#C85960;" d="M271.072,70.233c13.898,11.973,5.768,27.411,10.038,38.17c4.445,11.2,13.658,10.014,13.533,32.133
				c-0.047,8.358-1.739,14.725-11.366,18.749c-10.54,4.406-41.27,4.653-52.777,4.273c-6.907-0.228-14.423-0.963-19.427-5.73
				c-5.225-4.978-6.154-13.36-3.6-20.11c2.297-6.071,6.933-10.974,9.695-16.848c4.475-9.516,5.536-33.073,17.401-46.736
				c8.22-9.465,14.9-8.987,23.359-8.955C262.71,65.198,267.46,67.121,271.072,70.233z"/>
			<g>
				<path style="fill:#FF8672;" d="M269.014,140.262c-10.272-7.452-7.199-20.624-7.604-26.031
					c-4.583,0.451-8.957,1.778-18.031-0.526c-7.358-1.869,1.111,12.079-8.152,22.023c-1.86,1.996-3.055,3.797-4.713,5.968
					C232.395,148.329,261.364,151.297,269.014,140.262z"/>
				<path style="fill:#BD6656;" d="M261.619,127.301c-0.75-5.198,0.004-10.215-0.21-13.069c-4.582,0.451-8.957,1.778-18.031-0.526
					c-4.994-1.268-2.701,4.75-3.606,11.857c2.981,2.772,6.917,4.529,10.986,4.766C254.58,130.551,258.444,129.432,261.619,127.301z"
					/>
			</g>
			<path style="fill:#C85960;" d="M244.582,61.242c8.767-8.592,21.909,0.006,17.968,5.547c-2.657,3.736-14.633,3.181-17.422,3.311
				C239.296,70.373,241.746,64.021,244.582,61.242z"/>
			<path style="fill:#FF8672;" d="M258.923,123.157c5.534-3.378,7.747-10.176,9.543-16.406c6.311,3.537,9.123-21.154-1.649-13.49
				c1.835-1.306-1.2-6.714-1.905-8.084c-3.866-7.517-20.672-11.683-27.375-2.699C222.436,102.722,241.468,133.811,258.923,123.157z"
				/>
			
				<path style="fill:none;stroke:#BD6656;stroke-width:0.8008;stroke-linecap:round;stroke-linejoin:round;stroke-miterlimit:10;" d="
				M270.965,95.604c-0.837,0.369-1.542,1.032-1.959,1.846c-0.104,0.203-0.193,0.422-0.195,0.651
				c-0.009,0.964,1.317,1.279,1.892,2.053c0.398,0.538,0.378,1.346-0.047,1.863c-0.425,0.517-1.214,0.694-1.819,0.407"/>
			
				<path style="fill:none;stroke:#692E2F;stroke-width:0.8008;stroke-linecap:round;stroke-linejoin:round;stroke-miterlimit:10;" d="
				M237.53,100.016c0.961-2.65,3.34-4.456,6.072-3.762"/>
			
				<path style="fill:none;stroke:#692E2F;stroke-width:0.8008;stroke-linecap:round;stroke-linejoin:round;stroke-miterlimit:10;" d="
				M262.012,97.861c-1.041-3.303-4.719-4.037-6.853-1.919"/>
			
				<path style="fill:none;stroke:#BD6656;stroke-width:0.8008;stroke-linecap:round;stroke-linejoin:round;stroke-miterlimit:10;" d="
				M247.711,96.081c1.674,1.304,1.505,7.883-0.48,12.402c-0.408,0.93-0.077,0.9,1.947,2.196"/>
			<path style="fill:#FFBE61;" d="M299.816,216.015c17.555-20.053,15.592-14.917-9.543-73.476c-1.635-3.808-2.558-4.843-6.526-6.21
				c-3.661-1.261-7.398-2.299-11.185-3.106c-1.855-0.395-4.032-0.37-5.79-1.106c-1.369-0.573-2.968-2.234-4.591-2.019
				c-0.39,1.801-0.667,3.311-2.172,4.406c-2.482,1.807-4.868,2.194-7.8,2.127c-2.694-0.062-5.36-0.509-7.9-1.406
				c-1.492-0.526-2.959-1.188-4.286-2.062c-0.288-0.19-1.713-1.935-1.512-2.587c-1.689-0.134-6.014,2.129-7.68,2.825
				c-2.089,0.873-4.199,1.691-6.322,2.476c-2.968,1.097-6.039,2.035-8.893,3.415c-5.426,2.624-8.052,7.455-10.248,12.866
				c-16.665,41.063-18.065,43.203-18.226,49.643c-0.325,13.069,11.953,15.796,18.896,23.649c26.948-3.81,57.163,0.044,78.109-0.019
				C295.028,225.399,291.179,225.881,299.816,216.015z"/>
			<path style="fill:#C85960;" d="M265.997,77.907c-20.26-17.502-52.421,12.359-35.484,38.535c1.785,2.758-1.378,6.525-2.573,10.723
				c12.907-1.844,6.575-19.836,7.426-26.545c1.69-13.33,22.278-5.89,25.524-17.5c-0.631,2.869,1.222,4.697,2.413,7.383
				c1.589,3.585,0.981,8.294,1.58,8.732C265.89,99.969,275.154,85.817,265.997,77.907z"/>
			<path style="fill:#FFBE61;" d="M270.181,89.461c2.088-9.753-3.229-23.111-21.816-19.262c-7.717,1.598-17.663,8.596-17.514,17.293
				c0.034,1.951,0.427,3.875,0.819,5.786C232.09,73.288,264.881,66.877,270.181,89.461z"/>
			<g>
				
					<path style="fill:none;stroke:#FF8854;stroke-width:0.8008;stroke-linecap:round;stroke-linejoin:round;stroke-miterlimit:10;" d="
					M235.366,133.603c4.249,7.42,21.314,10.605,30.726,1.803"/>
				
					<path style="fill:none;stroke:#FF8854;stroke-width:0.8008;stroke-linecap:round;stroke-linejoin:round;stroke-miterlimit:10;" d="
					M285.41,145.733c-0.442,6.519-0.574,13.059-0.395,19.591"/>
				
					<path style="fill:none;stroke:#FF8854;stroke-width:0.8008;stroke-linecap:round;stroke-linejoin:round;stroke-miterlimit:10;" d="
					M213.986,152.618c1.008,4.832,0.72,9.829,0.427,14.756"/>
				
					<path style="fill:none;stroke:#FF8854;stroke-width:0.8008;stroke-linecap:round;stroke-linejoin:round;stroke-miterlimit:10;" d="
					M193.334,202.735c2.789-2.125,6.485-3.016,9.936-2.397c-3.206,2.473-5.666,5.902-6.981,9.732"/>
				
					<path style="fill:none;stroke:#FF8854;stroke-width:0.8008;stroke-linecap:round;stroke-linejoin:round;stroke-miterlimit:10;" d="
					M302.505,203.355c-0.915-3.674-3.189-6.994-6.284-9.175c2.496-0.418,10.391,2.752,10.595,5.29"/>
			</g>
			<g>
				<path style="fill:#964348;" d="M253.514,118.689c1.804-1.637,3.751-5.53,0.641-5.48c-1.284,0.021-2.553,0.241-3.853,0.28
					c-1.45,0.044-2.805-0.415-4.231-0.408C241.459,113.104,248.685,123.071,253.514,118.689z"/>
				<path style="fill:#FFFFFF;" d="M253.169,114.955c0.874-0.177,1.802-0.315,2.493-1.04c-0.205-0.439-0.666-0.719-1.506-0.706
					c-1.284,0.021-2.553,0.241-3.853,0.28c-1.45,0.044-2.805-0.415-4.23-0.408c-1.111,0.005-1.531,0.59-1.467,1.411
					c1.077,0.465,2.258,0.701,3.434,0.755C249.741,115.326,251.499,115.294,253.169,114.955z"/>
				<path style="fill:#C85960;" d="M246.908,118.161c1.843,1.588,4.461,2.475,6.607,0.528c0.196-0.178,0.392-0.385,0.585-0.608
					C252.004,116.282,248.789,116.536,246.908,118.161z"/>
			</g>
			<path style="fill:#692E2F;" d="M241.311,100.645c-1.636-0.4-1.071,4.146,0.114,3.844
				C242.305,104.264,242.591,100.958,241.311,100.645z"/>
			<path style="fill:#692E2F;" d="M257.881,99.753c-1.636-0.4-1.072,4.146,0.114,3.844
				C258.876,103.372,259.161,100.065,257.881,99.753z"/>
		</g>
		<path style="fill:#8574EE;" d="M231.149,267.164c25.932-11.172,75.334-49.317,94.165-41.494
			c9.725,4.04,13.702,19.835-5.511,36.686c-26.502,23.244-46.795,13.944-69.62,23.016c-5.05,2.007-10.381,4.411-11.657,1.6
			C237.602,284.934,229.936,267.693,231.149,267.164z"/>
		<g>
			<g>
				<g>
					<path style="fill:#F5DDD3;" d="M193.743,264.323c10.685-2.819,22.494,6.937,37.127,1.777c1.891-0.667,2.739-0.713,3.92,1.215
						c2.525,4.122,4.345,8.766,4.907,13.583c0.596,5.105-1.234,6.315-5.993,8.078c-8.84,3.275-17.773,6.975-27.342,7.213
						c-8.008,0.199-16.941-2.146-21.239-9.51C180.223,278.282,184.058,266.878,193.743,264.323z"/>
					<path style="fill:#C85960;" d="M199.263,290.179c4.442-8.267,3.15-19.219-2.986-26.292c10.02-0.937,21.106,6.969,34.592,2.214
						c1.891-0.667,2.739-0.713,3.92,1.215c2.525,4.122,4.345,8.766,4.907,13.583c0.435,3.726-0.43,5.376-2.775,6.682
						C225.029,286.085,214.025,298.696,199.263,290.179z"/>
					<path style="fill:#FFFFFF;" d="M219.937,270.294c1.786,0.042,4.66,4.113,5.618,5.631c0.594-1.675,0.978-3.414,1.276-5.172
						c0.246-1.454,1.412,1.835-0.152,7.083c1.907,3.547,1.963,6.08,1.409,5.56c-0.587-0.551-1.514-2.411-1.926-3.128
						c-0.365-0.634-0.01-0.522-1.133,1.484c-2.084,3.724-3.792,3.267-3.692,1.918c0.165-2.223,4.396-4.42,2.755-6.7
						C222.086,274.185,217.468,270.235,219.937,270.294z"/>
					<path style="fill:#FFFFFF;" d="M211.207,282.177c1.662-2.048,2.729-3.939,3.673-6.143c-0.585-1.203-1.114-2.176-1.961-3.55
						c-1.458-2.364-0.082-4.059,2.457,0.79c0.773,1.477,0.009-0.163,1.943-3.65c0.106-0.192,0.445-0.201,0.467,0.062
						c0.087,1.055-0.072,2.185-0.207,3.235c-0.897,7.005-1.319-0.197,0.616,7.762c1.031,4.24,0.294,4.433,0.018,3.911
						c-0.76-1.438-0.618-2.177-2.126-5.838C212.914,287.562,208.92,284.995,211.207,282.177z"/>
				</g>
				<path style="fill:#8574EE;" d="M213.437,225.843c2.032-2.711,3.164-3.275,6.742-3.799c22.501-3.295,51.589-4.54,55.141-3.212
					c3.822,1.428,18.939,16.686,25.198,38.093c-27.261,9.616-57.328,11.12-85.413,4.272
					C196.765,256.725,205.606,236.29,213.437,225.843z"/>
				<path style="fill:#FF8672;" d="M280.439,295.12c0.258-0.208,4.339-10.182,1.828-13.028c-2.39-2.71-20.99-9.153-21.667-9.314
					c-1.848-0.441-2.379,0.066-2.913,1.374c-1.632,3.993-5.582,8.943-4.639,13.536c0.994,4.837,8.911,5.137,12.781,6.173
					C271.91,295.488,279.201,296.12,280.439,295.12z"/>
				<g>
					<path style="fill:#F5DDD3;" d="M315.312,269.105c-10.999-1.066-21.087,10.459-36.359,7.716
						c-1.974-0.354-2.818-0.264-3.674,1.829c-1.831,4.474-2.881,9.35-2.662,14.195c0.232,5.134,2.232,6.035,7.213,7.011
						c9.251,1.813,18.663,4.03,28.145,2.728c7.936-1.09,16.376-4.839,19.436-12.798
						C330.898,280.711,325.281,270.071,315.312,269.105z"/>
					<path style="fill:#C85960;" d="M314.016,295.511c-5.712-7.446-6.196-18.463-1.276-26.43
						c-10.04,0.684-19.713,10.268-33.788,7.74c-1.974-0.354-2.818-0.264-3.674,1.829c-1.831,4.474-2.881,9.35-2.662,14.195
						c0.169,3.748,1.287,5.237,3.813,6.149C287.927,295.608,300.813,306.288,314.016,295.511z"/>
					<path style="fill:#FFFFFF;" d="M290.417,279.204c-1.756,0.329-3.939,4.808-4.641,6.46c-0.856-1.557-1.514-3.212-2.09-4.9
						c-0.477-1.396-1.099,2.038,1.288,6.967c-1.313,3.807-0.961,6.316-0.497,5.714c0.491-0.638,1.107-2.623,1.399-3.397
						c0.258-0.685-0.074-0.517,1.356,1.283c2.655,3.341,4.268,2.616,3.952,1.3c-0.52-2.168-5.049-3.657-3.795-6.17
						C288.92,283.39,292.844,278.75,290.417,279.204z"/>
					<path style="fill:#FFFFFF;" d="M300.942,289.531c-1.969-1.754-3.326-3.449-4.612-5.474c0.385-1.281,0.75-2.327,1.366-3.819
						c1.059-2.567-0.571-4.02-2.298,1.174c-0.526,1.582-0.036-0.16-2.504-3.29c-0.136-0.172-0.471-0.127-0.451,0.136
						c0.083,1.055,0.422,2.146,0.723,3.16c2.01,6.771,1.27-0.406,0.639,7.76c-0.336,4.35,0.422,4.422,0.61,3.864
						c0.52-1.541,0.26-2.248,1.161-6.104C300.121,295.121,303.651,291.945,300.942,289.531z"/>
				</g>
				<path style="fill:#8574EE;" d="M175.021,260.257c-21.408-14.671-7.485-62.7,65.844-5.968
					c6.464,5.001,27.415,19.036,28.299,21.862c0.244,0.78-2.522,17.591-10.229,17.288c-4.915-0.194-9.606-3.824-31.305-10.098
					C214.531,279.553,198.523,276.363,175.021,260.257z"/>
				<g>
					
						<path style="fill:none;stroke:#6557B2;stroke-width:0.8008;stroke-linecap:round;stroke-linejoin:round;stroke-miterlimit:10;" d="
						M209.455,235.419c7.011,2.947,13.303,7.337,19.536,11.694c12.082,8.445,24.163,16.891,36.245,25.336"/>
					
						<path style="fill:none;stroke:#6557B2;stroke-width:0.8008;stroke-linecap:round;stroke-linejoin:round;stroke-miterlimit:10;" d="
						M248.982,257.84c13.085-8.863,27.122-16.317,41.793-22.193"/>
				</g>
			</g>
			<g>
				<path style="fill:#CEC7F8;" d="M299.529,174.921c-0.211,19.291,0.526,55.255-0.745,57.293
					c-4.176,6.698-18.594-0.471-83.853,3.068c-9.416,0.511-16.376-0.522-16.084-9.982c0.338-10.942-2.944-29.728-0.573-48.851
					c0.794-6.408,3.341-7.238,6.557-7.26C298.778,168.542,299.624,166.173,299.529,174.921z"/>
				<path style="fill:#8574EE;" d="M244.747,200.342c8.002,5.723,17.079-5.732,8.787-11.881
					C245.791,182.718,236.908,194.735,244.747,200.342z"/>
			</g>
		</g>
		<g>
			
				<path style="fill:none;stroke:#964348;stroke-width:0.8008;stroke-linecap:round;stroke-linejoin:round;stroke-miterlimit:10;" d="
				M248.15,65.615c2.994-1.529,6.512-2.008,9.806-1.337"/>
			
				<path style="fill:none;stroke:#964348;stroke-width:0.8008;stroke-linecap:round;stroke-linejoin:round;stroke-miterlimit:10;" d="
				M263.395,82.807c3.181,2.69,4.517,7.365,3.237,11.33"/>
			
				<path style="fill:none;stroke:#964348;stroke-width:0.8008;stroke-linecap:round;stroke-linejoin:round;stroke-miterlimit:10;" d="
				M257.778,78.476c-2.728,9.045-15.12,8.454-21.22,14.624c-2.962,2.995-4.278,7.524-3.384,11.64"/>
			
				<path style="fill:none;stroke:#964348;stroke-width:0.8008;stroke-linecap:round;stroke-linejoin:round;stroke-miterlimit:10;" d="
				M247.91,78.932c-4.349-0.719-12.12,6.691-14.909,14.068"/>
			
				<path style="fill:none;stroke:#964348;stroke-width:0.8008;stroke-linecap:round;stroke-linejoin:round;stroke-miterlimit:10;" d="
				M268.886,113.735c-0.807,4.568,0.365,12.898,4.454,14.595"/>
			
				<path style="fill:none;stroke:#964348;stroke-width:0.8008;stroke-linecap:round;stroke-linejoin:round;stroke-miterlimit:10;" d="
				M275.122,106.481c-4.269,12.624,11.401,17.65,11.889,24.607"/>
			
				<path style="fill:none;stroke:#964348;stroke-width:0.8008;stroke-linecap:round;stroke-linejoin:round;stroke-miterlimit:10;" d="
				M269.366,71.828c4.134,3.702,6.598,9.204,6.605,14.754"/>
			
				<path style="fill:none;stroke:#964348;stroke-width:0.8008;stroke-linecap:round;stroke-linejoin:round;stroke-miterlimit:10;" d="
				M245.023,65.738c3.122-5.007,9.694-6.633,14.79-3.66"/>
			
				<path style="fill:none;stroke:#964348;stroke-width:0.8008;stroke-linecap:round;stroke-linejoin:round;stroke-miterlimit:10;" d="
				M226.632,95.545c-2.988,9.54-0.901,20.418-5.412,29.34c-2.353,4.653-6.337,8.374-8.397,13.164"/>
			
				<path style="fill:none;stroke:#964348;stroke-width:0.8008;stroke-linecap:round;stroke-linejoin:round;stroke-miterlimit:10;" d="
				M229.866,111.735c0.623,7.42-3.65,13.959-7.675,19.953"/>
			
				<path style="fill:none;stroke:#964348;stroke-width:0.8008;stroke-linecap:round;stroke-linejoin:round;stroke-miterlimit:10;" d="
				M234.645,121.278c0.151,2.87-0.991,5.783-3.052,7.786"/>
		</g>
	</g>
	<g>
		<path style="fill:#CEC7F8;" d="M432.306,380.932c8.917,9.521,17.079,24.222,18.14,37.174
			c2.107,25.749-39.133,45.463-66.133,24.047c-9.567-7.589-14.976-19.399-13.671-31.54c1.913-17.801,16.746-27.521,25.95-41.074
			c0.537-0.791,0.832-1.725,0.829-2.682c-0.065-16.572-0.539-21.201-1.422-38.468c-0.05-0.974-0.841-1.707-1.813-1.78
			c-4.509-0.337-5.632-9.048-3.483-10.811c0.757-0.621,1.853-0.577,2.832-0.583c30.637-0.169,31.468-1.367,31.6,3.363
			c0.221,7.948-3.455,6.631-4.639,7.478c-1.472,1.054-0.471,3.274-0.558,23.593C419.86,367.612,417.178,364.778,432.306,380.932z"/>
		<path style="fill:none;stroke:#8574EE;stroke-linecap:round;stroke-linejoin:round;stroke-miterlimit:10;" d="M397.616,326.011
			c6.659,1.426,13.637,1.341,20.26-0.246"/>
		<path style="fill:#8BC084;" d="M437.338,391.013c26.091,42.099-9.077,61.218-34.996,55.171
			c-22.026-5.139-32.911-24.15-27.973-40.134c2.153-6.97,9.333-17.614,17.195-19.844c4.651-1.319,8.392,1.092,12.964,1.669
			C417.978,389.572,423.253,368.286,437.338,391.013z"/>
		<g>
			<path style="fill:#6A9065;" d="M401.208,407.046c-0.2-2.942-4.829-3.572-5.11,0.323
				C396.296,410.305,400.925,410.947,401.208,407.046z"/>
			<path style="fill:#6A9065;" d="M410.535,392.812c-2.818-0.589-3.525,3.6-0.868,4.155
				C412.486,397.556,413.192,393.367,410.535,392.812z"/>
			<path style="fill:#6A9065;" d="M418.054,405.381c-3.025-0.632-3.784,3.865-0.931,4.461
				C420.149,410.474,420.906,405.976,418.054,405.381z"/>
			<path style="fill:#6A9065;" d="M426.444,394.855c-0.189-2.782-4.572-3.387-4.84,0.306
				C421.793,397.943,426.177,398.547,426.444,394.855z"/>
			<path style="fill:#6A9065;" d="M437.733,405.219c-3.127-0.653-3.911,3.995-0.963,4.611
				C439.898,410.483,440.681,405.835,437.733,405.219z"/>
			<path style="fill:#6A9065;" d="M412.757,402.079c-0.857-2.518-4.5-0.105-2.481,1.74
				C411.428,404.853,413.243,403.548,412.757,402.079z"/>
			<path style="fill:#6A9065;" d="M409.239,413.741c-0.196-2.896-4.761-3.528-5.04,0.319
				C404.395,416.951,408.96,417.592,409.239,413.741z"/>
			<path style="fill:#6A9065;" d="M432.04,412.428c-0.139-2.054-3.383-2.514-3.582,0.226
				C428.598,414.708,431.842,415.166,432.04,412.428z"/>
			<path style="fill:#6A9065;" d="M426.748,401.753c-0.152-2.241-3.686-2.734-3.902,0.246
				C422.998,404.238,426.533,404.735,426.748,401.753z"/>
			<path style="fill:#6A9065;" d="M387.845,411.679c-0.182-2.688-4.419-3.275-4.678,0.296
				C383.348,414.664,387.587,415.249,387.845,411.679z"/>
			<path style="fill:#6A9065;" d="M424.55,427.543c0.035,2.948,4.622,3.836,5.12-0.038
				C429.637,424.563,425.051,423.663,424.55,427.543z"/>
			<path style="fill:#6A9065;" d="M414.444,441.234c2.781,0.745,3.72-3.398,1.098-4.1
				C412.761,436.389,411.822,440.532,414.444,441.234z"/>
			<path style="fill:#6A9065;" d="M407.638,428.266c2.985,0.799,3.994-3.648,1.179-4.402
				C405.83,423.064,404.824,427.512,407.638,428.266z"/>
			<path style="fill:#6A9065;" d="M398.674,438.307c0.033,2.788,4.376,3.637,4.849-0.036
				C403.49,435.483,399.147,434.635,398.674,438.307z"/>
			<path style="fill:#6A9065;" d="M387.981,427.33c3.086,0.826,4.128-3.771,1.218-4.55
				C386.113,421.954,385.072,426.551,387.981,427.33z"/>
			<path style="fill:#6A9065;" d="M412.743,431.858c0.715,2.562,4.487,0.355,2.574-1.599
				C414.225,429.163,412.34,430.364,412.743,431.858z"/>
			<path style="fill:#6A9065;" d="M416.905,420.41c0.034,2.903,4.557,3.788,5.05-0.037
				C421.921,417.475,417.399,416.581,416.905,420.41z"/>
			<path style="fill:#6A9065;" d="M394.067,420.449c0.024,2.059,3.237,2.698,3.589-0.026
				C397.631,418.365,394.418,417.726,394.067,420.449z"/>
			<path style="fill:#6A9065;" d="M398.755,431.403c0.026,2.246,3.528,2.935,3.909-0.029
				C402.638,429.131,399.137,428.438,398.755,431.403z"/>
			<path style="fill:#6A9065;" d="M438.152,423.662c0.032,2.694,4.229,3.516,4.688-0.034
				C442.807,420.933,438.608,420.112,438.152,423.662z"/>
		</g>
	</g>
	<g>
		<path style="fill:#6557B2;" d="M149.381,56.333c3.262,4.563,6.423,9.201,9.48,13.909c2.039,3.14,3.649,3.99,1.018,7.995
			c-5.922,9.013-14.227,16.64-24.21,20.719c-4.149,1.696-9.915,4.825-12.866,1.451c-4.475-5.115-8.777-10.38-12.898-15.783
			c0.079-2.618,2.232-4.319,34.694-26.989C146.017,56.646,147.656,56.204,149.381,56.333z"/>
		<path style="fill:#8574EE;" d="M158.853,48.413c-21.977,31.86-21.366,30.6-22.465,30.963
			c-12.033,3.976-24.151,7.691-36.345,11.142c-2.928-1.308-0.184-2.823,4.591-9.352c4.053-5.542,8.18-11.043,12.454-16.454
			c4.481-5.674,3.101-4.978,9.056-7.033C165.721,44.018,156.427,46.525,158.853,48.413z"/>
		<path style="fill:none;stroke:#6557B2;stroke-linecap:round;stroke-linejoin:round;stroke-miterlimit:10;" d="M99.429,88.975
			c4.617-1.307,33.793-9.909,36.178-11.717c1.861-1.41,19.667-25.992,21.643-28.752"/>
		<path style="fill:none;stroke:#6557B2;stroke-linecap:round;stroke-linejoin:round;stroke-miterlimit:10;" d="M135.434,77.514
			c0.551,0.495,1.008,1.094,1.339,1.756"/>
		<path style="fill:#FFBE61;" d="M170.488,71.566c-13.916-3.84-11.786-13.188-15.622-16.604c-3.784-3.371-12.498,0.89-16.847,3.494
			c-12.953,7.757-13.166,7.806-12.55,8.745c1.353,2.062,13.999-9.726,23.213-11.667c8.893-1.873,5.004,5.407,12.208,12.079
			C166.225,72.554,171.865,71.947,170.488,71.566z"/>
		<g>
			<path style="fill:#FFBE61;" d="M170.139,80.142c0.553,2.211-0.392,3.277-0.189,4.224c0.951,0.021,2-0.322,2.122-0.497
				c0.396-0.567-0.554-3.974-0.495-4.331c-0.034,0.203,0.847,1.14,0.977,1.353c1.597,2.619-0.037,3.017,3.197,1.255
				c0.79-0.43-1.936-4.35-2.543-5.105c0.478,0.149,4.614,2.945,4.283,3.373c2.964-3.838,3.263-2.319-2.76-6.863
				c1.867,0.958,3.821,1.749,5.829,2.359c0.237,0.072,1.283-3.658,1.159-4.13c-1.493,0.179-3.016,0.098-4.482-0.238
				c1.138,0.311,3.938-0.929,4.928-1.413c-0.124-5.946,0.242-0.814-7.784-1.452C158.291,67.399,169.047,75.776,170.139,80.142z"/>
			<path style="fill:none;stroke:#FF8854;stroke-linecap:round;stroke-linejoin:round;stroke-miterlimit:10;" d="M177.608,78.855
				c-3.075-5.136-9.031-3.94-10.052-8.224"/>
			<path style="fill:none;stroke:#FF8854;stroke-linecap:round;stroke-linejoin:round;stroke-miterlimit:10;" d="M173.879,81.54
				c-0.961-3.406-4.205-5.597-6.392-8.095"/>
			<path style="fill:none;stroke:#FF8854;stroke-linecap:round;stroke-linejoin:round;stroke-miterlimit:10;" d="M180.251,73.23
				c-1.782-0.017-2.922-0.373-11.074-2.284"/>
			<path style="fill:none;stroke:#FF8854;stroke-linecap:round;stroke-linejoin:round;stroke-miterlimit:10;" d="M180.878,68.518
				c-3.427,2.774-8.217,0.444-12.254,1.325"/>
		</g>
	</g>
	<g>
		<path style="fill:#F5BDA6;" d="M385.502,85.389c-27.688,46.556-15.01,46.579-49.06,25.879c-6.35-3.86-3.701-4.932,16.917-38.856
			c4.334-7.131,4.564-8.306,6.417-8.327c3.856-0.043,24.359,12.407,26.918,15.318c0.527,0.6,0.589,0.892,0.439,1.634
			C386.82,82.582,386.308,84.033,385.502,85.389z"/>
		<path style="fill:none;stroke:#FF8854;stroke-linecap:round;stroke-linejoin:round;stroke-miterlimit:10;" d="M346.321,115.485
			c22.988-40.101,20.677-36.552,25.599-43.147"/>
		<path style="fill:none;stroke:#FF8854;stroke-linecap:round;stroke-linejoin:round;stroke-miterlimit:10;" d="M348.184,116.897
			c8.753-14.439,17.425-28.928,26.014-43.465"/>
		<path style="fill:#8574EE;" d="M348.311,99.991c2.951,3.132,0.782,7.929-2.906,8.56c-2.468,0.422-5.12-1.233-5.825-3.636
			C338.119,99.933,344.413,95.854,348.311,99.991z"/>
		<path style="fill:#8BC084;" d="M356.42,86.539c2.951,3.132,0.782,7.929-2.906,8.56c-2.468,0.422-5.12-1.233-5.825-3.636
			C346.227,86.481,352.522,82.401,356.42,86.539z"/>
		<path style="fill:#C85960;" d="M364.085,73.086c2.951,3.132,0.782,7.929-2.906,8.56c-2.468,0.422-5.12-1.233-5.825-3.636
			C353.892,73.028,360.187,68.949,364.085,73.086z"/>
		<path style="fill:#BD6656;" d="M364.085,109.197c2.951,3.132,0.782,7.929-2.906,8.56c-2.468,0.422-5.12-1.233-5.825-3.636
			C353.892,109.139,360.187,105.059,364.085,109.197z"/>
		<path style="fill:#FF8854;" d="M372.194,95.744c2.951,3.132,0.782,7.929-2.906,8.56c-2.468,0.422-5.12-1.233-5.825-3.636
			C362.001,95.686,368.296,91.607,372.194,95.744z"/>
		<path style="fill:#6A9065;" d="M379.859,82.292c2.951,3.132,0.782,7.929-2.906,8.56c-2.468,0.422-5.12-1.233-5.825-3.636
			C369.666,82.234,375.961,78.154,379.859,82.292z"/>
	</g>
	<g>
		<path style="fill:none;stroke:#964348;stroke-linecap:round;stroke-linejoin:round;stroke-miterlimit:10;" d="M127.228,147.324
			c-10.264,18.939,1.562,47.041,11.108,32.625c9.434-14.246,6.243-32.831-1.656-38.329
			C132.707,138.855,128.941,144.163,127.228,147.324z"/>
		<path style="fill:#FF8854;" d="M129.419,162.397c-0.903,6.63,10.679,6.993,9.312-0.89
			C137.895,156.686,130.186,156.768,129.419,162.397z"/>
		<path style="fill:#8574EE;" d="M136.172,143.17c2.012-1.046,2.688-3.866,0.657-5.244c-1.75-1.187-4.521,0.015-5.056,2.046
			C131.161,142.298,133.747,144.43,136.172,143.17z"/>
		<path style="fill:#8BC084;" d="M134.704,186.596c2.012-1.046,2.688-3.866,0.657-5.243c-1.75-1.187-4.521,0.015-5.056,2.046
			C129.692,185.724,132.279,187.857,134.704,186.596z"/>
		<path style="fill:none;stroke:#964348;stroke-linecap:round;stroke-linejoin:round;stroke-miterlimit:10;" d="M141.966,148.243
			c-21.361,2.781-37.202,28.832-19.927,28.119c17.073-0.704,30.262-14.18,30.088-23.803
			C152.039,147.719,145.532,147.778,141.966,148.243z"/>
		<path style="fill:#8BC084;" d="M150.574,153.056c2.027,1.017,4.708-0.087,4.634-2.54c-0.064-2.114-2.662-3.654-4.621-2.898
			C148.343,148.484,148.131,151.83,150.574,153.056z"/>
		<path style="fill:#8574EE;" d="M114.524,177.314c2.027,1.017,4.708-0.087,4.634-2.54c-0.064-2.114-2.662-3.654-4.621-2.898
			C112.294,172.742,112.082,176.087,114.524,177.314z"/>
		<path style="fill:none;stroke:#964348;stroke-linecap:round;stroke-linejoin:round;stroke-miterlimit:10;" d="M149.906,162.998
			c-12.433-17.591-42.866-19.436-34.17-4.492c8.594,14.769,26.669,20.14,35.097,15.493
			C155.073,171.662,151.982,165.935,149.906,162.998z"/>
		<path style="fill:#C85960;" d="M149.669,172.857c0.047,2.267,2.276,4.123,4.41,2.912c1.839-1.043,1.989-4.06,0.405-5.439
			C152.671,168.75,149.613,170.125,149.669,172.857z"/>
		<path style="fill:#C85960;" d="M111.386,152.305c0.047,2.267,2.276,4.122,4.41,2.912c1.839-1.043,1.989-4.06,0.405-5.439
			C114.388,148.198,111.33,149.572,111.386,152.305z"/>
	</g>
	<g>
		<path style="fill:#8574EE;" d="M408.537,173.732c10.732-9.216,4.311-9.154,0.576-12.538c-5.595-5.07-5.847-5.1-8.559-0.635
			c-1.124,1.851-4.879,9.475-4.684,11.617c0.283,3.112,5.294,5.484,6.752,5.358C404.55,177.367,406.504,175.478,408.537,173.732z"/>
		<g>
			<path style="fill:none;stroke:#6557B2;stroke-linecap:round;stroke-linejoin:round;stroke-miterlimit:10;" d="M397.566,168.799
				c0.258,1.027,4.417,5.821,8.454,6.201"/>
			<path style="fill:none;stroke:#6557B2;stroke-linecap:round;stroke-linejoin:round;stroke-miterlimit:10;" d="M399.153,165.483
				c1.969,3.794,5.948,6.467,10.204,6.856"/>
			<path style="fill:none;stroke:#6557B2;stroke-linecap:round;stroke-linejoin:round;stroke-miterlimit:10;" d="M400.941,161.372
				c2.318,4.143,6.642,7.1,11.343,7.758"/>
		</g>
		<path style="fill:#FFBE61;" d="M401.075,146.299c2.208-13.795,13.774-18.513,24.081-14.085c20.751,8.914,14.425,31.36-4.702,34.13
			c-6.075,0.88-7.853,0.577-10.697-0.971C403.494,161.964,399.267,157.594,401.075,146.299z"/>
		<path style="fill:none;stroke:#FFFFFF;stroke-linecap:round;stroke-linejoin:round;stroke-miterlimit:10;" d="M405.1,162.186
			c22.211-25.969,2.974-23.559,5.508-13.98c1.386,5.239,7.031,8.281,12.456,7.467c6.854-1.028,3.873-9.053-1.183-4.855
			c-4.916,4.081-8.707,9.21-12.52,14.336"/>
	</g>
</g>
</svg>
