<svg version="1.2" xmlns="http://www.w3.org/2000/svg" viewBox="0 0 235 16" width="235" height="16"><style>.a{fill:#161616}</style><path class="a" d="m235.2 2.9q-0.4 0-0.8 0.1 0 0 0 0c-0.9 0.2-1.8 0.4-2.7 0.6-1 0.2-2 0.3-3.1 0.5-2.1 0.2-4.3 0.3-6.4 0.4q-7.9 0.5-15.8 0.7c-5.4 0.2-10.7 0.4-16.1 0.4-9.6 0.1-19.2 0.2-28.8 0.6-5.3 0.2-10.6 0.3-15.8 0.6-5.2 0.3-10.4 0.5-15.6 0.9-5.1 0.3-10.2 0.6-15.4 1-5.2 0.4-10.5 0.7-15.7 1.2q-8.8 0.7-17.5 1.5c-5.7 0.4-11.4 1-17 1.6q-7.4 0.6-14.9 1.4c-1.8 0.1-3.7 0.3-5.5 0.5q-4.5 0.3-9.1 0.5-7 0.3-14 0.2-10.7-0.1-21.5-0.8 0 0 0 0 9.4-1.7 18.7-3.2c9.7-1.4 19.5-2.5 29.2-3.3q16.9-1.3 33.8-2.6c5.4-0.4 10.9-0.7 16.4-1.1 5-0.3 10.1-0.6 15.1-0.9 10.3-0.7 20.6-1.2 30.8-1.7 10.6-0.5 21.1-0.8 31.6-1.1q6.8-0.1 13.5-0.2 1.8 0 3.6 0 6.8 0 13.6 0.3c4.9 0.1 9.9 0.5 14.8 0.9q3.9 0.3 7.7 0.7 1.7 0.2 3.5 0.2c1.1 0 2.3 0 3.4 0.1q0.1 0 0 0z"/></svg>